<mxfile host="Electron" modified="2023-06-07T09:00:55.856Z" agent="Mozilla/5.0 (Windows NT 10.0; Win64; x64) AppleWebKit/537.36 (KHTML, like Gecko) draw.io/21.2.8 Chrome/112.0.5615.165 Electron/24.2.0 Safari/537.36" etag="jhaXT7G7riMBZurjMkXq" version="21.2.8" type="device">
  <diagram name="Page-1" id="yi8XpHsxwfXrC6YvU_RY">
    <mxGraphModel dx="1418" dy="820" grid="1" gridSize="10" guides="1" tooltips="1" connect="1" arrows="1" fold="1" page="1" pageScale="1" pageWidth="1654" pageHeight="1169" math="0" shadow="0">
      <root>
        <mxCell id="0" />
        <mxCell id="1" parent="0" />
        <mxCell id="igZRPWCzs3Hm7b5LNBdH-15" style="edgeStyle=orthogonalEdgeStyle;rounded=0;orthogonalLoop=1;jettySize=auto;html=1;entryX=0.5;entryY=0;entryDx=0;entryDy=0;strokeColor=#A50040;fontColor=#393C56;fillColor=#d80073;" parent="1" source="igZRPWCzs3Hm7b5LNBdH-1" target="mUuY9xoMhvxbhO6yxmGz-1" edge="1">
          <mxGeometry relative="1" as="geometry">
            <Array as="points">
              <mxPoint x="827" y="436" />
            </Array>
            <mxPoint x="827" y="436" as="targetPoint" />
          </mxGeometry>
        </mxCell>
        <mxCell id="igZRPWCzs3Hm7b5LNBdH-1" value="Activity 5" style="rounded=1;whiteSpace=wrap;html=1;strokeColor=#001DBC;fontColor=#ffffff;fillColor=#0050ef;gradientColor=none;" parent="1" vertex="1">
          <mxGeometry x="767" y="330" width="120" height="60" as="geometry" />
        </mxCell>
        <mxCell id="mUuY9xoMhvxbhO6yxmGz-15" style="edgeStyle=orthogonalEdgeStyle;rounded=0;orthogonalLoop=1;jettySize=auto;html=1;" parent="1" source="mUuY9xoMhvxbhO6yxmGz-1" target="mUuY9xoMhvxbhO6yxmGz-9" edge="1">
          <mxGeometry relative="1" as="geometry" />
        </mxCell>
        <mxCell id="mUuY9xoMhvxbhO6yxmGz-1" value="Code Start" style="ellipse;whiteSpace=wrap;html=1;fillColor=#d5e8d4;strokeColor=#82b366;" parent="1" vertex="1">
          <mxGeometry x="767" y="446" width="120" height="80" as="geometry" />
        </mxCell>
        <mxCell id="mUuY9xoMhvxbhO6yxmGz-18" style="edgeStyle=orthogonalEdgeStyle;rounded=0;orthogonalLoop=1;jettySize=auto;html=1;entryX=0.5;entryY=0;entryDx=0;entryDy=0;" parent="1" source="mUuY9xoMhvxbhO6yxmGz-9" target="mUuY9xoMhvxbhO6yxmGz-10" edge="1">
          <mxGeometry relative="1" as="geometry" />
        </mxCell>
        <mxCell id="mUuY9xoMhvxbhO6yxmGz-27" style="edgeStyle=orthogonalEdgeStyle;rounded=0;orthogonalLoop=1;jettySize=auto;html=1;" parent="1" source="mUuY9xoMhvxbhO6yxmGz-9" target="mUuY9xoMhvxbhO6yxmGz-22" edge="1">
          <mxGeometry relative="1" as="geometry" />
        </mxCell>
        <mxCell id="mUuY9xoMhvxbhO6yxmGz-9" value="Is on a marker?" style="rhombus;whiteSpace=wrap;html=1;fillColor=#f8cecc;strokeColor=#b85450;" parent="1" vertex="1">
          <mxGeometry x="762" y="546" width="130" height="80" as="geometry" />
        </mxCell>
        <mxCell id="mUuY9xoMhvxbhO6yxmGz-19" style="edgeStyle=orthogonalEdgeStyle;rounded=0;orthogonalLoop=1;jettySize=auto;html=1;" parent="1" source="mUuY9xoMhvxbhO6yxmGz-10" target="mUuY9xoMhvxbhO6yxmGz-11" edge="1">
          <mxGeometry relative="1" as="geometry" />
        </mxCell>
        <mxCell id="mUuY9xoMhvxbhO6yxmGz-28" style="edgeStyle=orthogonalEdgeStyle;rounded=0;orthogonalLoop=1;jettySize=auto;html=1;entryX=0;entryY=0.5;entryDx=0;entryDy=0;" parent="1" source="mUuY9xoMhvxbhO6yxmGz-10" target="mUuY9xoMhvxbhO6yxmGz-23" edge="1">
          <mxGeometry relative="1" as="geometry" />
        </mxCell>
        <mxCell id="mUuY9xoMhvxbhO6yxmGz-10" value="Has returned to entrance?" style="rhombus;whiteSpace=wrap;html=1;fillColor=#f8cecc;strokeColor=#b85450;" parent="1" vertex="1">
          <mxGeometry x="762" y="650" width="130" height="80" as="geometry" />
        </mxCell>
        <mxCell id="mUuY9xoMhvxbhO6yxmGz-20" style="edgeStyle=orthogonalEdgeStyle;rounded=0;orthogonalLoop=1;jettySize=auto;html=1;" parent="1" source="mUuY9xoMhvxbhO6yxmGz-11" target="mUuY9xoMhvxbhO6yxmGz-14" edge="1">
          <mxGeometry relative="1" as="geometry" />
        </mxCell>
        <mxCell id="mUuY9xoMhvxbhO6yxmGz-29" style="edgeStyle=orthogonalEdgeStyle;rounded=0;orthogonalLoop=1;jettySize=auto;html=1;entryX=0;entryY=0.5;entryDx=0;entryDy=0;" parent="1" source="mUuY9xoMhvxbhO6yxmGz-11" target="mUuY9xoMhvxbhO6yxmGz-24" edge="1">
          <mxGeometry relative="1" as="geometry" />
        </mxCell>
        <mxCell id="mUuY9xoMhvxbhO6yxmGz-11" value="Is at end of maze?" style="rhombus;whiteSpace=wrap;html=1;fillColor=#f8cecc;strokeColor=#b85450;" parent="1" vertex="1">
          <mxGeometry x="762" y="750" width="130" height="80" as="geometry" />
        </mxCell>
        <mxCell id="mUuY9xoMhvxbhO6yxmGz-31" style="edgeStyle=orthogonalEdgeStyle;rounded=0;orthogonalLoop=1;jettySize=auto;html=1;" parent="1" source="mUuY9xoMhvxbhO6yxmGz-12" target="mUuY9xoMhvxbhO6yxmGz-26" edge="1">
          <mxGeometry relative="1" as="geometry" />
        </mxCell>
        <mxCell id="h23bOPsmLHP65PpYI3rM-24" style="edgeStyle=orthogonalEdgeStyle;rounded=0;orthogonalLoop=1;jettySize=auto;html=1;" edge="1" parent="1" source="mUuY9xoMhvxbhO6yxmGz-12" target="h23bOPsmLHP65PpYI3rM-23">
          <mxGeometry relative="1" as="geometry" />
        </mxCell>
        <mxCell id="mUuY9xoMhvxbhO6yxmGz-12" value="Is left clear?" style="rhombus;whiteSpace=wrap;html=1;fillColor=#f8cecc;strokeColor=#b85450;" parent="1" vertex="1">
          <mxGeometry x="762" y="950" width="130" height="80" as="geometry" />
        </mxCell>
        <mxCell id="mUuY9xoMhvxbhO6yxmGz-21" style="edgeStyle=orthogonalEdgeStyle;rounded=0;orthogonalLoop=1;jettySize=auto;html=1;" parent="1" source="mUuY9xoMhvxbhO6yxmGz-14" target="mUuY9xoMhvxbhO6yxmGz-12" edge="1">
          <mxGeometry relative="1" as="geometry" />
        </mxCell>
        <mxCell id="mUuY9xoMhvxbhO6yxmGz-30" style="edgeStyle=orthogonalEdgeStyle;rounded=0;orthogonalLoop=1;jettySize=auto;html=1;" parent="1" source="mUuY9xoMhvxbhO6yxmGz-14" target="mUuY9xoMhvxbhO6yxmGz-25" edge="1">
          <mxGeometry relative="1" as="geometry" />
        </mxCell>
        <mxCell id="mUuY9xoMhvxbhO6yxmGz-14" value="Is right clear?" style="rhombus;whiteSpace=wrap;html=1;fillColor=#f8cecc;strokeColor=#b85450;" parent="1" vertex="1">
          <mxGeometry x="762" y="850" width="130" height="80" as="geometry" />
        </mxCell>
        <mxCell id="h23bOPsmLHP65PpYI3rM-17" style="edgeStyle=orthogonalEdgeStyle;rounded=0;orthogonalLoop=1;jettySize=auto;html=1;entryX=0.5;entryY=0;entryDx=0;entryDy=0;" edge="1" parent="1" source="mUuY9xoMhvxbhO6yxmGz-22" target="mUuY9xoMhvxbhO6yxmGz-10">
          <mxGeometry relative="1" as="geometry">
            <Array as="points">
              <mxPoint x="1000" y="630" />
              <mxPoint x="827" y="630" />
            </Array>
          </mxGeometry>
        </mxCell>
        <mxCell id="mUuY9xoMhvxbhO6yxmGz-22" value="Pick up a marker" style="shape=parallelogram;perimeter=parallelogramPerimeter;whiteSpace=wrap;html=1;fixedSize=1;fillColor=#e1d5e7;strokeColor=#9673a6;" parent="1" vertex="1">
          <mxGeometry x="940" y="556" width="120" height="60" as="geometry" />
        </mxCell>
        <mxCell id="h23bOPsmLHP65PpYI3rM-21" style="edgeStyle=orthogonalEdgeStyle;rounded=0;orthogonalLoop=1;jettySize=auto;html=1;" edge="1" parent="1" source="mUuY9xoMhvxbhO6yxmGz-23" target="h23bOPsmLHP65PpYI3rM-22">
          <mxGeometry relative="1" as="geometry">
            <mxPoint x="1140" y="690" as="targetPoint" />
          </mxGeometry>
        </mxCell>
        <mxCell id="mUuY9xoMhvxbhO6yxmGz-23" value="Drop all markers" style="shape=parallelogram;perimeter=parallelogramPerimeter;whiteSpace=wrap;html=1;fixedSize=1;fillColor=#e1d5e7;strokeColor=#9673a6;" parent="1" vertex="1">
          <mxGeometry x="940" y="660" width="120" height="60" as="geometry" />
        </mxCell>
        <mxCell id="h23bOPsmLHP65PpYI3rM-19" style="edgeStyle=orthogonalEdgeStyle;rounded=0;orthogonalLoop=1;jettySize=auto;html=1;" edge="1" parent="1" source="mUuY9xoMhvxbhO6yxmGz-24" target="mUuY9xoMhvxbhO6yxmGz-14">
          <mxGeometry relative="1" as="geometry">
            <Array as="points">
              <mxPoint x="1000" y="840" />
              <mxPoint x="827" y="840" />
            </Array>
          </mxGeometry>
        </mxCell>
        <mxCell id="mUuY9xoMhvxbhO6yxmGz-24" value="Turn around" style="shape=parallelogram;perimeter=parallelogramPerimeter;whiteSpace=wrap;html=1;fixedSize=1;fillColor=#e1d5e7;strokeColor=#9673a6;" parent="1" vertex="1">
          <mxGeometry x="940" y="760" width="120" height="60" as="geometry" />
        </mxCell>
        <mxCell id="h23bOPsmLHP65PpYI3rM-20" style="edgeStyle=orthogonalEdgeStyle;rounded=0;orthogonalLoop=1;jettySize=auto;html=1;" edge="1" parent="1" source="mUuY9xoMhvxbhO6yxmGz-25" target="mUuY9xoMhvxbhO6yxmGz-12">
          <mxGeometry relative="1" as="geometry">
            <Array as="points">
              <mxPoint x="1000" y="940" />
              <mxPoint x="827" y="940" />
            </Array>
          </mxGeometry>
        </mxCell>
        <mxCell id="mUuY9xoMhvxbhO6yxmGz-25" value="Turn right" style="shape=parallelogram;perimeter=parallelogramPerimeter;whiteSpace=wrap;html=1;fixedSize=1;fillColor=#e1d5e7;strokeColor=#9673a6;" parent="1" vertex="1">
          <mxGeometry x="940" y="860" width="120" height="60" as="geometry" />
        </mxCell>
        <mxCell id="h23bOPsmLHP65PpYI3rM-25" style="edgeStyle=orthogonalEdgeStyle;rounded=0;orthogonalLoop=1;jettySize=auto;html=1;" edge="1" parent="1" source="mUuY9xoMhvxbhO6yxmGz-26" target="h23bOPsmLHP65PpYI3rM-23">
          <mxGeometry relative="1" as="geometry">
            <Array as="points">
              <mxPoint x="1000" y="1040" />
              <mxPoint x="827" y="1040" />
            </Array>
          </mxGeometry>
        </mxCell>
        <mxCell id="mUuY9xoMhvxbhO6yxmGz-26" value="Turn left" style="shape=parallelogram;perimeter=parallelogramPerimeter;whiteSpace=wrap;html=1;fixedSize=1;fillColor=#e1d5e7;strokeColor=#9673a6;" parent="1" vertex="1">
          <mxGeometry x="940" y="960" width="120" height="60" as="geometry" />
        </mxCell>
        <mxCell id="h23bOPsmLHP65PpYI3rM-1" value="Yes" style="text;strokeColor=none;align=center;fillColor=none;html=1;verticalAlign=middle;whiteSpace=wrap;rounded=0;" vertex="1" parent="1">
          <mxGeometry x="892" y="556" width="60" height="30" as="geometry" />
        </mxCell>
        <mxCell id="h23bOPsmLHP65PpYI3rM-2" value="Yes" style="text;strokeColor=none;align=center;fillColor=none;html=1;verticalAlign=middle;whiteSpace=wrap;rounded=0;" vertex="1" parent="1">
          <mxGeometry x="892" y="960" width="60" height="30" as="geometry" />
        </mxCell>
        <mxCell id="h23bOPsmLHP65PpYI3rM-3" value="Yes" style="text;strokeColor=none;align=center;fillColor=none;html=1;verticalAlign=middle;whiteSpace=wrap;rounded=0;" vertex="1" parent="1">
          <mxGeometry x="892" y="860" width="60" height="30" as="geometry" />
        </mxCell>
        <mxCell id="h23bOPsmLHP65PpYI3rM-4" value="Yes" style="text;strokeColor=none;align=center;fillColor=none;html=1;verticalAlign=middle;whiteSpace=wrap;rounded=0;" vertex="1" parent="1">
          <mxGeometry x="892" y="760" width="60" height="30" as="geometry" />
        </mxCell>
        <mxCell id="h23bOPsmLHP65PpYI3rM-5" value="Yes" style="text;strokeColor=none;align=center;fillColor=none;html=1;verticalAlign=middle;whiteSpace=wrap;rounded=0;" vertex="1" parent="1">
          <mxGeometry x="892" y="660" width="60" height="30" as="geometry" />
        </mxCell>
        <mxCell id="h23bOPsmLHP65PpYI3rM-9" value="No" style="text;strokeColor=none;align=center;fillColor=none;html=1;verticalAlign=middle;whiteSpace=wrap;rounded=0;" vertex="1" parent="1">
          <mxGeometry x="767" y="630" width="60" height="20" as="geometry" />
        </mxCell>
        <mxCell id="h23bOPsmLHP65PpYI3rM-10" value="No" style="text;strokeColor=none;align=center;fillColor=none;html=1;verticalAlign=middle;whiteSpace=wrap;rounded=0;" vertex="1" parent="1">
          <mxGeometry x="767" y="830" width="60" height="20" as="geometry" />
        </mxCell>
        <mxCell id="h23bOPsmLHP65PpYI3rM-12" value="No" style="text;strokeColor=none;align=center;fillColor=none;html=1;verticalAlign=middle;whiteSpace=wrap;rounded=0;" vertex="1" parent="1">
          <mxGeometry x="767" y="930" width="60" height="20" as="geometry" />
        </mxCell>
        <mxCell id="h23bOPsmLHP65PpYI3rM-14" value="No" style="text;strokeColor=none;align=center;fillColor=none;html=1;verticalAlign=middle;whiteSpace=wrap;rounded=0;" vertex="1" parent="1">
          <mxGeometry x="767" y="730" width="60" height="20" as="geometry" />
        </mxCell>
        <mxCell id="h23bOPsmLHP65PpYI3rM-22" value="Code End" style="ellipse;whiteSpace=wrap;html=1;fillColor=#d5e8d4;strokeColor=#82b366;" vertex="1" parent="1">
          <mxGeometry x="1080" y="650" width="120" height="80" as="geometry" />
        </mxCell>
        <mxCell id="h23bOPsmLHP65PpYI3rM-26" style="edgeStyle=orthogonalEdgeStyle;rounded=0;orthogonalLoop=1;jettySize=auto;html=1;entryX=0;entryY=0.5;entryDx=0;entryDy=0;" edge="1" parent="1" source="h23bOPsmLHP65PpYI3rM-23" target="mUuY9xoMhvxbhO6yxmGz-9">
          <mxGeometry relative="1" as="geometry">
            <mxPoint x="690" y="590" as="targetPoint" />
            <Array as="points">
              <mxPoint x="690" y="1080" />
              <mxPoint x="690" y="586" />
            </Array>
          </mxGeometry>
        </mxCell>
        <mxCell id="h23bOPsmLHP65PpYI3rM-23" value="Move Forwards" style="shape=parallelogram;perimeter=parallelogramPerimeter;whiteSpace=wrap;html=1;fixedSize=1;fillColor=#e1d5e7;strokeColor=#9673a6;" vertex="1" parent="1">
          <mxGeometry x="767" y="1050" width="120" height="60" as="geometry" />
        </mxCell>
      </root>
    </mxGraphModel>
  </diagram>
</mxfile>
